<?xml version="1.0" encoding="UTF-8" standalone="no"?>
<!DOCTYPE svg PUBLIC "-//W3C//DTD SVG 1.1//EN"
 "http://www.w3.org/Graphics/SVG/1.1/DTD/svg11.dtd">
<!-- Generated by graphviz version 2.44.1 (0)
 -->
<!-- Title: G Pages: 1 -->
<svg width="280pt" height="366pt"
 viewBox="0.00 0.00 280.00 366.00" xmlns="http://www.w3.org/2000/svg" xmlns:xlink="http://www.w3.org/1999/xlink">
<g id="graph0" class="graph" transform="scale(1 1) rotate(0) translate(4 362)">
<title>G</title>
<polygon fill="white" stroke="transparent" points="-4,4 -4,-362 276,-362 276,4 -4,4"/>
<g id="clust1" class="cluster">
<title>cluster_Global</title>
<path fill="none" stroke="gray" d="M20,-8C20,-8 252,-8 252,-8 258,-8 264,-14 264,-20 264,-20 264,-338 264,-338 264,-344 258,-350 252,-350 252,-350 20,-350 20,-350 14,-350 8,-344 8,-338 8,-338 8,-20 8,-20 8,-14 14,-8 20,-8"/>
<text text-anchor="middle" x="136" y="-337.2" font-family="Times,serif" font-size="11.00" fill="gray">Global</text>
</g>
<!-- \\ldapAuth -->
<g id="node1" class="node">
<title>\\ldapAuth</title>
<polygon fill="none" stroke="black" points="249.5,-322 178.5,-322 178.5,-286 249.5,-286 249.5,-322"/>
<text text-anchor="middle" x="214" y="-301.2" font-family="Courier,monospace" font-size="11.00">ldapAuth</text>
</g>
<!-- \\Auth -->
<g id="node3" class="node">
<title>\\Auth</title>
<polygon fill="none" stroke="black" points="100,-187 16,-187 16,-151 100,-151 100,-187"/>
<text text-anchor="start" x="24" y="-172.2" font-family="Courier,monospace" font-size="11.00">«abstract»</text>
<text text-anchor="start" x="44" y="-160.2" font-family="Courier,monospace" font-size="11.00">Auth</text>
</g>
<!-- \\ldapAuth&#45;&gt;\\Auth -->
<g id="edge1" class="edge">
<title>\\ldapAuth&#45;&gt;\\Auth</title>
<path fill="none" stroke="black" d="M183.86,-285.76C179.8,-282.94 175.73,-279.97 172,-277 139.39,-251.03 105.22,-217.33 83.11,-194.54"/>
<polygon fill="none" stroke="black" points="85.55,-192.03 76.09,-187.25 80.51,-196.88 85.55,-192.03"/>
</g>
<!-- \\ssoAuth -->
<g id="node2" class="node">
<title>\\ssoAuth</title>
<polygon fill="none" stroke="black" points="246,-268 182,-268 182,-232 246,-232 246,-268"/>
<text text-anchor="middle" x="214" y="-247.2" font-family="Courier,monospace" font-size="11.00">ssoAuth</text>
</g>
<!-- \\ssoAuth&#45;&gt;\\Auth -->
<g id="edge2" class="edge">
<title>\\ssoAuth&#45;&gt;\\Auth</title>
<path fill="none" stroke="black" d="M181.84,-233.61C158.98,-221.59 127.65,-205.11 102.35,-191.8"/>
<polygon fill="none" stroke="black" points="103.81,-188.62 93.33,-187.06 100.55,-194.81 103.81,-188.62"/>
</g>
<!-- \\DBCon -->
<g id="node4" class="node">
<title>\\DBCon</title>
<polygon fill="none" stroke="black" points="241,-214 187,-214 187,-178 241,-178 241,-214"/>
<text text-anchor="middle" x="214" y="-193.2" font-family="Courier,monospace" font-size="11.00">DBCon</text>
</g>
<!-- \\Utils -->
<g id="node5" class="node">
<title>\\Utils</title>
<polygon fill="none" stroke="black" points="241,-160 187,-160 187,-124 241,-124 241,-160"/>
<text text-anchor="middle" x="214" y="-139.2" font-family="Courier,monospace" font-size="11.00">Utils</text>
</g>
<!-- \\demoAuth -->
<g id="node6" class="node">
<title>\\demoAuth</title>
<polygon fill="none" stroke="black" points="249.5,-106 178.5,-106 178.5,-70 249.5,-70 249.5,-106"/>
<text text-anchor="middle" x="214" y="-85.2" font-family="Courier,monospace" font-size="11.00">demoAuth</text>
</g>
<!-- \\demoAuth&#45;&gt;\\Auth -->
<g id="edge3" class="edge">
<title>\\demoAuth&#45;&gt;\\Auth</title>
<path fill="none" stroke="black" d="M178.44,-106.18C155.95,-118.01 126.44,-133.53 102.37,-146.19"/>
<polygon fill="none" stroke="black" points="100.67,-143.13 93.45,-150.88 103.93,-149.33 100.67,-143.13"/>
</g>
<!-- \\openidAuth -->
<g id="node7" class="node">
<title>\\openidAuth</title>
<polygon fill="none" stroke="black" points="256,-52 172,-52 172,-16 256,-16 256,-52"/>
<text text-anchor="middle" x="214" y="-31.2" font-family="Courier,monospace" font-size="11.00">openidAuth</text>
</g>
<!-- \\openidAuth&#45;&gt;\\Auth -->
<g id="edge4" class="edge">
<title>\\openidAuth&#45;&gt;\\Auth</title>
<path fill="none" stroke="black" d="M183.86,-52.24C179.8,-55.06 175.73,-58.03 172,-61 139.39,-86.97 105.22,-120.67 83.11,-143.46"/>
<polygon fill="none" stroke="black" points="80.51,-141.12 76.09,-150.75 85.55,-145.97 80.51,-141.12"/>
</g>
</g>
</svg>
