<?xml version="1.0" encoding="UTF-8" standalone="no"?>
<!DOCTYPE svg PUBLIC "-//W3C//DTD SVG 1.1//EN"
 "http://www.w3.org/Graphics/SVG/1.1/DTD/svg11.dtd">
<!-- Generated by graphviz version 2.44.1 (0)
 -->
<!-- Title: G Pages: 1 -->
<svg width="294pt" height="474pt"
 viewBox="0.00 0.00 294.00 474.00" xmlns="http://www.w3.org/2000/svg" xmlns:xlink="http://www.w3.org/1999/xlink">
<g id="graph0" class="graph" transform="scale(1 1) rotate(0) translate(4 470)">
<title>G</title>
<polygon fill="white" stroke="transparent" points="-4,4 -4,-470 290,-470 290,4 -4,4"/>
<g id="clust1" class="cluster">
<title>cluster_Global</title>
<path fill="none" stroke="gray" d="M20,-8C20,-8 266,-8 266,-8 272,-8 278,-14 278,-20 278,-20 278,-446 278,-446 278,-452 272,-458 266,-458 266,-458 20,-458 20,-458 14,-458 8,-452 8,-446 8,-446 8,-20 8,-20 8,-14 14,-8 20,-8"/>
<text text-anchor="middle" x="143" y="-445.2" font-family="Times,serif" font-size="11.00" fill="gray">Global</text>
</g>
<!-- \\ldapAuth -->
<g id="node1" class="node">
<title>\\ldapAuth</title>
<polygon fill="none" stroke="black" points="256.5,-52 185.5,-52 185.5,-16 256.5,-16 256.5,-52"/>
<text text-anchor="middle" x="221" y="-31.2" font-family="Courier,monospace" font-size="11.00">ldapAuth</text>
</g>
<!-- \\Auth -->
<g id="node5" class="node">
<title>\\Auth</title>
<polygon fill="none" stroke="black" points="100,-133 16,-133 16,-97 100,-97 100,-133"/>
<text text-anchor="start" x="24" y="-118.2" font-family="Courier,monospace" font-size="11.00">«abstract»</text>
<text text-anchor="start" x="44" y="-106.2" font-family="Courier,monospace" font-size="11.00">Auth</text>
</g>
<!-- \\ldapAuth&#45;&gt;\\Auth -->
<g id="edge1" class="edge">
<title>\\ldapAuth&#45;&gt;\\Auth</title>
<path fill="none" stroke="black" d="M185.46,-51.38C161.68,-63.34 129.85,-79.36 104.07,-92.32"/>
<polygon fill="none" stroke="black" points="102.24,-89.33 94.88,-96.95 105.38,-95.58 102.24,-89.33"/>
</g>
<!-- \\ssoAuth -->
<g id="node2" class="node">
<title>\\ssoAuth</title>
<polygon fill="none" stroke="black" points="253,-322 189,-322 189,-286 253,-286 253,-322"/>
<text text-anchor="middle" x="221" y="-301.2" font-family="Courier,monospace" font-size="11.00">ssoAuth</text>
</g>
<!-- \\ssoAuth&#45;&gt;\\Auth -->
<g id="edge2" class="edge">
<title>\\ssoAuth&#45;&gt;\\Auth</title>
<path fill="none" stroke="black" d="M188.9,-289.23C182.96,-285.67 177.03,-281.56 172,-277 127.9,-236.97 91.63,-176.7 72.86,-142.07"/>
<polygon fill="none" stroke="black" points="75.83,-140.2 68.04,-133.02 69.65,-143.49 75.83,-140.2"/>
</g>
<!-- \\DocMGMT -->
<g id="node3" class="node">
<title>\\DocMGMT</title>
<polygon fill="none" stroke="black" points="100,-403 16,-403 16,-367 100,-367 100,-403"/>
<text text-anchor="start" x="24" y="-388.2" font-family="Courier,monospace" font-size="11.00">«abstract»</text>
<text text-anchor="start" x="34" y="-376.2" font-family="Courier,monospace" font-size="11.00">DocMGMT</text>
</g>
<!-- \\demoDocMGMT -->
<g id="node4" class="node">
<title>\\demoDocMGMT</title>
<polygon fill="none" stroke="black" points="266.5,-430 175.5,-430 175.5,-394 266.5,-394 266.5,-430"/>
<text text-anchor="middle" x="221" y="-409.2" font-family="Courier,monospace" font-size="11.00">demoDocMGMT</text>
</g>
<!-- \\demoDocMGMT&#45;&gt;\\DocMGMT -->
<g id="edge3" class="edge">
<title>\\demoDocMGMT&#45;&gt;\\DocMGMT</title>
<path fill="none" stroke="black" d="M175.15,-404.48C154.92,-401.09 130.93,-397.06 110.01,-393.56"/>
<polygon fill="none" stroke="black" points="110.47,-390.08 100.03,-391.88 109.31,-396.99 110.47,-390.08"/>
</g>
<!-- \\DBCon -->
<g id="node6" class="node">
<title>\\DBCon</title>
<polygon fill="none" stroke="black" points="248,-268 194,-268 194,-232 248,-232 248,-268"/>
<text text-anchor="middle" x="221" y="-247.2" font-family="Courier,monospace" font-size="11.00">DBCon</text>
</g>
<!-- \\Utils -->
<g id="node7" class="node">
<title>\\Utils</title>
<polygon fill="none" stroke="black" points="248,-214 194,-214 194,-178 248,-178 248,-214"/>
<text text-anchor="middle" x="221" y="-193.2" font-family="Courier,monospace" font-size="11.00">Utils</text>
</g>
<!-- \\localDocMGMT -->
<g id="node8" class="node">
<title>\\localDocMGMT</title>
<polygon fill="none" stroke="black" points="270,-376 172,-376 172,-340 270,-340 270,-376"/>
<text text-anchor="middle" x="221" y="-355.2" font-family="Courier,monospace" font-size="11.00">localDocMGMT</text>
</g>
<!-- \\localDocMGMT&#45;&gt;\\DocMGMT -->
<g id="edge4" class="edge">
<title>\\localDocMGMT&#45;&gt;\\DocMGMT</title>
<path fill="none" stroke="black" d="M171.69,-366.1C152.29,-369.35 129.9,-373.11 110.21,-376.41"/>
<polygon fill="none" stroke="black" points="109.48,-372.99 100.2,-378.09 110.64,-379.89 109.48,-372.99"/>
</g>
<!-- \\demoAuth -->
<g id="node9" class="node">
<title>\\demoAuth</title>
<polygon fill="none" stroke="black" points="256.5,-106 185.5,-106 185.5,-70 256.5,-70 256.5,-106"/>
<text text-anchor="middle" x="221" y="-85.2" font-family="Courier,monospace" font-size="11.00">demoAuth</text>
</g>
<!-- \\demoAuth&#45;&gt;\\Auth -->
<g id="edge5" class="edge">
<title>\\demoAuth&#45;&gt;\\Auth</title>
<path fill="none" stroke="black" d="M185.46,-93.79C163.45,-97.48 134.55,-102.33 109.94,-106.46"/>
<polygon fill="none" stroke="black" points="109.32,-103.01 100.04,-108.12 110.48,-109.92 109.32,-103.01"/>
</g>
<!-- \\openidAuth -->
<g id="node10" class="node">
<title>\\openidAuth</title>
<polygon fill="none" stroke="black" points="263,-160 179,-160 179,-124 263,-124 263,-160"/>
<text text-anchor="middle" x="221" y="-139.2" font-family="Courier,monospace" font-size="11.00">openidAuth</text>
</g>
<!-- \\openidAuth&#45;&gt;\\Auth -->
<g id="edge6" class="edge">
<title>\\openidAuth&#45;&gt;\\Auth</title>
<path fill="none" stroke="black" d="M178.96,-135.12C158.03,-131.61 132.38,-127.31 110.18,-123.58"/>
<polygon fill="none" stroke="black" points="110.69,-120.12 100.25,-121.92 109.53,-127.02 110.69,-120.12"/>
</g>
</g>
</svg>
