<?xml version="1.0" encoding="UTF-8" standalone="no"?>
<!DOCTYPE svg PUBLIC "-//W3C//DTD SVG 1.1//EN"
 "http://www.w3.org/Graphics/SVG/1.1/DTD/svg11.dtd">
<!-- Generated by graphviz version 2.44.0 (0)
 -->
<!-- Title: G Pages: 1 -->
<svg width="280pt" height="366pt"
 viewBox="0.00 0.00 280.00 366.00" xmlns="http://www.w3.org/2000/svg" xmlns:xlink="http://www.w3.org/1999/xlink">
<g id="graph0" class="graph" transform="scale(1 1) rotate(0) translate(4 362)">
<title>G</title>
<polygon fill="white" stroke="transparent" points="-4,4 -4,-362 276,-362 276,4 -4,4"/>
<g id="clust1" class="cluster">
<title>cluster_Global</title>
<path fill="none" stroke="gray" d="M20,-8C20,-8 252,-8 252,-8 258,-8 264,-14 264,-20 264,-20 264,-338 264,-338 264,-344 258,-350 252,-350 252,-350 20,-350 20,-350 14,-350 8,-344 8,-338 8,-338 8,-20 8,-20 8,-14 14,-8 20,-8"/>
<text text-anchor="middle" x="136" y="-337.2" font-family="Times,serif" font-size="11.00" fill="gray">Global</text>
</g>
<!-- \\Utils -->
<g id="node1" class="node">
<title>\\Utils</title>
<polygon fill="none" stroke="black" points="241,-322 187,-322 187,-286 241,-286 241,-322"/>
<text text-anchor="middle" x="214" y="-301.2" font-family="Courier,monospace" font-size="11.00">Utils</text>
</g>
<!-- \\DBCon -->
<g id="node2" class="node">
<title>\\DBCon</title>
<polygon fill="none" stroke="black" points="241,-268 187,-268 187,-232 241,-232 241,-268"/>
<text text-anchor="middle" x="214" y="-247.2" font-family="Courier,monospace" font-size="11.00">DBCon</text>
</g>
<!-- \\demoAuth -->
<g id="node3" class="node">
<title>\\demoAuth</title>
<polygon fill="none" stroke="black" points="249.5,-214 178.5,-214 178.5,-178 249.5,-178 249.5,-214"/>
<text text-anchor="middle" x="214" y="-193.2" font-family="Courier,monospace" font-size="11.00">demoAuth</text>
</g>
<!-- \\Auth -->
<g id="node4" class="node">
<title>\\Auth</title>
<polygon fill="none" stroke="black" points="100,-133 16,-133 16,-97 100,-97 100,-133"/>
<text text-anchor="start" x="24" y="-118.2" font-family="Courier,monospace" font-size="11.00">«abstract»</text>
<text text-anchor="start" x="44" y="-106.2" font-family="Courier,monospace" font-size="11.00">Auth</text>
</g>
<!-- \\demoAuth&#45;&gt;\\Auth -->
<g id="edge1" class="edge">
<title>\\demoAuth&#45;&gt;\\Auth</title>
<path fill="none" stroke="black" d="M178.44,-177.82C155.95,-165.99 126.44,-150.47 102.37,-137.81"/>
<polygon fill="none" stroke="black" points="103.93,-134.67 93.45,-133.12 100.67,-140.87 103.93,-134.67"/>
</g>
<!-- \\openidAuth -->
<g id="node5" class="node">
<title>\\openidAuth</title>
<polygon fill="none" stroke="black" points="256,-160 172,-160 172,-124 256,-124 256,-160"/>
<text text-anchor="middle" x="214" y="-139.2" font-family="Courier,monospace" font-size="11.00">openidAuth</text>
</g>
<!-- \\openidAuth&#45;&gt;\\Auth -->
<g id="edge2" class="edge">
<title>\\openidAuth&#45;&gt;\\Auth</title>
<path fill="none" stroke="black" d="M171.73,-134.76C152.75,-131.44 130.05,-127.46 110.01,-123.94"/>
<polygon fill="none" stroke="black" points="110.57,-120.49 100.12,-122.21 109.36,-127.38 110.57,-120.49"/>
</g>
<!-- \\ssoAuth -->
<g id="node6" class="node">
<title>\\ssoAuth</title>
<polygon fill="none" stroke="black" points="246,-106 182,-106 182,-70 246,-70 246,-106"/>
<text text-anchor="middle" x="214" y="-85.2" font-family="Courier,monospace" font-size="11.00">ssoAuth</text>
</g>
<!-- \\ssoAuth&#45;&gt;\\Auth -->
<g id="edge3" class="edge">
<title>\\ssoAuth&#45;&gt;\\Auth</title>
<path fill="none" stroke="black" d="M181.84,-93.46C161.23,-97.08 133.73,-101.9 109.97,-106.06"/>
<polygon fill="none" stroke="black" points="109.3,-102.63 100.05,-107.8 110.51,-109.52 109.3,-102.63"/>
</g>
<!-- \\ldapAuth -->
<g id="node7" class="node">
<title>\\ldapAuth</title>
<polygon fill="none" stroke="black" points="249.5,-52 178.5,-52 178.5,-16 249.5,-16 249.5,-52"/>
<text text-anchor="middle" x="214" y="-31.2" font-family="Courier,monospace" font-size="11.00">ldapAuth</text>
</g>
<!-- \\ldapAuth&#45;&gt;\\Auth -->
<g id="edge4" class="edge">
<title>\\ldapAuth&#45;&gt;\\Auth</title>
<path fill="none" stroke="black" d="M178.44,-52.18C155.95,-64.01 126.44,-79.53 102.37,-92.19"/>
<polygon fill="none" stroke="black" points="100.67,-89.13 93.45,-96.88 103.93,-95.33 100.67,-89.13"/>
</g>
</g>
</svg>
